<?xml version="1.0" encoding="iso-8859-1"?>
<!-- Generator: Adobe Illustrator 19.0.0, SVG Export Plug-In . SVG Version: 6.00 Build 0)  -->
<svg version="1.1" id="Capa_1" xmlns="http://www.w3.org/2000/svg" xmlns:xlink="http://www.w3.org/1999/xlink" x="0px" y="0px"
	 viewBox="0 0 512.002 512.002" style="enable-background:new 0 0 512.002 512.002;" xml:space="preserve">
<g>
	<g>
		<path d="M458.87,7.101c-1.603-5.286-7.188-8.268-12.472-6.669l-160.47,48.644c-2.632-13.352-14.425-23.456-28.538-23.456
			c-16.041,0-29.091,13.05-29.091,29.091v11.834L59.8,117.624c-5.285,1.602-8.271,7.186-6.669,12.471
			c1.31,4.319,5.276,7.102,9.566,7.102c0.961,0,1.938-0.139,2.905-0.433L228.3,87.444v20.121
			c-16.402,9.896-27.395,27.886-27.395,48.398v0.021H171.44c-11.781,0-21.365,9.584-21.365,21.365v13.741
			c-0.123,0.007-0.247,0.004-0.37,0.012c-10.385,0.687-19.985,6.465-25.414,15.426c-0.767,1.266-1.521,2.539-2.267,3.816
			c-0.31,0.53-0.613,1.064-0.919,1.597c-0.411,0.716-0.823,1.431-1.228,2.15c-0.416,0.738-0.826,1.48-1.235,2.222
			c-0.261,0.474-0.523,0.948-0.781,1.424c-0.5,0.921-0.997,1.845-1.487,2.771c-0.117,0.222-0.235,0.445-0.352,0.667
			c-16.494,31.337-26.874,65.481-30.626,100.616c-0.023,0.214-0.049,0.428-0.072,0.642c-0.084,0.8-0.157,1.6-0.234,2.401
			c-0.067,0.701-0.136,1.402-0.198,2.103c-0.065,0.74-0.124,1.48-0.183,2.221c-0.038,0.468-0.081,0.935-0.116,1.403
			c-0.007,0.094-0.007,0.186-0.014,0.28c-0.508,6.866-0.773,13.762-0.773,20.677c0,51.125,14,101.262,40.486,144.99
			c5.789,9.557,16.326,15.494,27.499,15.494h105.6h105.6c11.174,0,21.71-5.937,27.499-15.494
			c26.486-43.729,40.485-93.866,40.485-144.99c0-6.9-0.264-13.781-0.77-20.631c-0.008-0.109-0.008-0.217-0.016-0.326
			c-0.041-0.542-0.09-1.083-0.134-1.624c-0.051-0.633-0.101-1.267-0.157-1.9c-0.075-0.849-0.157-1.698-0.24-2.547
			c-0.064-0.658-0.124-1.317-0.193-1.974c-0.059-0.564-0.126-1.126-0.188-1.69c-3.836-34.778-14.166-68.568-30.495-99.606
			c-0.131-0.25-0.262-0.499-0.394-0.749c-0.479-0.906-0.964-1.808-1.453-2.708c-0.271-0.499-0.546-0.997-0.82-1.494
			c-0.398-0.722-0.797-1.442-1.201-2.16c-0.417-0.741-0.842-1.479-1.266-2.216c-0.295-0.514-0.588-1.029-0.887-1.54
			c-0.748-1.281-1.504-2.557-2.272-3.825c-5.491-9.066-15.257-14.864-25.783-15.437V177.35c0-11.781-9.584-21.365-21.365-21.365
			h-29.465v-0.021c0-20.512-10.993-38.502-27.395-48.398V69.807l165.72-50.235C457.486,17.97,460.472,12.386,458.87,7.101z
			 M248.3,81.382V60.483v-5.772c0-5.013,4.078-9.091,9.091-9.091s9.091,4.078,9.091,9.091v0.26V75.87v24.349
			c-2.962-0.481-5.996-0.741-9.091-0.741c-3.095,0-6.129,0.26-9.091,0.742V81.382z M247.391,492.003h-95.6
			c-4.222-0.001-8.204-2.244-10.391-5.856c-18.757-30.967-30.516-64.735-35.283-99.213c13.307,12.853,31.252,20.158,49.83,20.158
			h91.444V492.003z M373.382,486.147c-2.188,3.612-6.169,5.855-10.392,5.855h-95.6v-84.911h91.443
			c18.579,0,36.523-7.305,49.831-20.158C403.897,421.412,392.139,455.18,373.382,486.147z M362.99,211.035v-0.002
			c4.223,0,8.204,2.244,10.392,5.856c0.714,1.178,1.414,2.362,2.108,3.548c0.35,0.6,0.695,1.204,1.04,1.808
			c0.305,0.532,0.611,1.065,0.913,1.599c0.498,0.884,0.991,1.77,1.479,2.66c0.091,0.165,0.181,0.33,0.271,0.495
			c17.611,32.304,28.302,68.385,31.052,105.058c1.07,14.279-3.73,27.952-13.517,38.5c-9.75,10.508-23.563,16.535-37.895,16.535
			H257.391H155.947c-14.332,0-28.145-6.027-37.895-16.536c-9.786-10.547-14.586-24.22-13.516-38.499
			c2.75-36.677,13.443-72.761,31.057-105.068c0.086-0.157,0.172-0.314,0.259-0.471c0.491-0.896,0.987-1.788,1.489-2.678
			c0.299-0.53,0.602-1.058,0.906-1.586c0.347-0.606,0.693-1.213,1.045-1.816c0.694-1.186,1.394-2.37,2.108-3.548
			c2.188-3.612,6.169-5.855,10.392-5.855h8.283h194.632H362.99z M303.876,175.983h39.465c0.753,0,1.365,0.612,1.365,1.365v13.685
			H170.074v-13.685c0-0.753,0.612-1.365,1.365-1.365h39.466H303.876z M293.876,155.963v0.021h-72.971v-0.021
			c0-10.988,4.889-20.849,12.599-27.544c5.347-4.643,12.051-7.757,19.432-8.66c1.461-0.179,2.945-0.282,4.454-0.282
			c1.509,0,2.993,0.103,4.454,0.282c7.381,0.903,14.085,4.016,19.432,8.66C288.987,135.113,293.876,144.975,293.876,155.963z"/>
	</g>
</g>
<g>
	<g>
		<path d="M240.61,281.203c-4.483-3.226-10.731-2.205-13.958,2.278l-30.034,41.75c-3.225,4.483-2.206,10.732,2.278,13.958
			c1.768,1.271,3.809,1.883,5.831,1.883c3.108,0,6.173-1.445,8.127-4.161l30.034-41.75
			C246.113,290.678,245.093,284.429,240.61,281.203z"/>
	</g>
</g>
<g>
	<g>
		<path d="M269.923,252.122c-0.13-0.63-0.32-1.26-0.57-1.87c-0.25-0.6-0.56-1.18-0.92-1.72c-0.36-0.55-0.78-1.06-1.24-1.52
			c-0.46-0.46-0.97-0.88-1.52-1.25c-0.54-0.36-1.12-0.67-1.73-0.92c-0.6-0.25-1.229-0.44-1.87-0.57c-1.29-0.26-2.609-0.26-3.91,0
			c-0.63,0.13-1.26,0.32-1.869,0.57c-0.601,0.25-1.181,0.56-1.721,0.92c-0.55,0.37-1.06,0.79-1.52,1.25
			c-0.46,0.46-0.88,0.97-1.25,1.52c-0.36,0.54-0.67,1.12-0.92,1.72c-0.25,0.61-0.44,1.24-0.57,1.87c-0.13,0.65-0.19,1.31-0.19,1.96
			c0,0.65,0.061,1.31,0.19,1.95c0.13,0.64,0.32,1.27,0.57,1.87c0.25,0.61,0.56,1.19,0.92,1.73c0.37,0.55,0.79,1.06,1.25,1.52
			c0.46,0.46,0.97,0.88,1.52,1.24c0.54,0.36,1.12,0.67,1.721,0.92c0.609,0.25,1.239,0.44,1.869,0.57c0.65,0.13,1.311,0.2,1.96,0.2
			c2.631,0,5.211-1.07,7.07-2.93c0.46-0.46,0.88-0.97,1.24-1.52c0.36-0.54,0.67-1.12,0.92-1.73c0.25-0.6,0.44-1.23,0.57-1.87
			c0.13-0.64,0.199-1.3,0.199-1.95C270.122,253.432,270.053,252.772,269.923,252.122z"/>
	</g>
</g>
<g>
	<g>
		<path d="M344.952,241.964c-4.484-3.226-10.733-2.205-13.957,2.278l-70.473,97.96c-3.225,4.484-2.205,10.733,2.278,13.958
			c1.768,1.271,3.809,1.883,5.831,1.883c3.108,0,6.173-1.445,8.127-4.161l70.471-97.96
			C350.455,251.439,349.435,245.19,344.952,241.964z"/>
	</g>
</g>
<g>
</g>
<g>
</g>
<g>
</g>
<g>
</g>
<g>
</g>
<g>
</g>
<g>
</g>
<g>
</g>
<g>
</g>
<g>
</g>
<g>
</g>
<g>
</g>
<g>
</g>
<g>
</g>
<g>
</g>
</svg>
