<svg id="Capa_1" enable-background="new 0 0 512.005 512.005" height="512" viewBox="0 0 512.005 512.005" width="512" xmlns="http://www.w3.org/2000/svg"><g><path d="m129.853 333.034 11.21 178.97h99.94v-209h-90.27c-13.112 0-21.789 15.514-20.88 30.03z"/><path d="m361.643 303.004h-90.64v209h101.77l9.77-179.25c.818-15.113-8.418-29.75-20.9-29.75z"/><path d="m24.813 463.214c2.435 27.649 25.898 48.79 53.99 48.79h32.19l-11.08-177.09c-2.048-32.552 20.385-61.91 50.82-61.91h210.91c30.055 0 52.637 28.698 50.85 61.38l-9.68 177.62h30.39c28.089 0 51.555-21.137 53.99-48.79l19.75-224.34h-501.88z"/><path d="m453.243 121.004h-182.24v-64.518l172.82-26.657c8.188-1.263 13.801-8.924 12.537-17.111-1.262-8.187-8.905-13.805-17.111-12.538l-369.533 57c-8.188 1.263-13.801 8.924-12.537 17.111 1.143 7.413 7.53 12.715 14.806 12.715 1.798 0-9.335 1.618 169.019-25.892v59.891h-182.241c-34.395 0-61.511 29.056-58.54 62.87l2.2 25h507.16l2.2-25c2.952-33.599-23.914-62.871-58.54-62.871z"/></g></svg>