<?xml version="1.0" encoding="iso-8859-1"?>
<!-- Generator: Adobe Illustrator 16.0.0, SVG Export Plug-In . SVG Version: 6.00 Build 0)  -->
<!DOCTYPE svg PUBLIC "-//W3C//DTD SVG 1.1//EN" "http://www.w3.org/Graphics/SVG/1.1/DTD/svg11.dtd">
<svg version="1.1" id="Capa_1" xmlns="http://www.w3.org/2000/svg" xmlns:xlink="http://www.w3.org/1999/xlink" x="0px" y="0px"
	 width="45.803px" height="45.803px" viewBox="0 0 45.803 45.803" style="enable-background:new 0 0 45.803 45.803;"
	 xml:space="preserve">
<g>
	<g>
		<g>
			<circle cx="41.139" cy="5.903" r="4.664"/>
			<path d="M34.066,26.856c-1.071,0.271-1.721,1.358-1.447,2.43c0.452,1.781-0.629,3.598-2.409,4.049l-16.379,4.16
				c0.101-0.125,0.197-0.255,0.285-0.395l7.23-11.523l12.534-9.208c1.78-1.308,2.164-3.812,0.855-5.592
				c-0.981-1.336-2.512-1.791-4.153-1.523c-0.156,0.025-17.185,3.44-17.185,3.44c-1.353,0.275-2.227,1.595-1.953,2.948
				c0.241,1.185,1.283,2.003,2.448,2.003c0.165,0,0.332-0.017,0.5-0.05l5.954-1.209l-4.351,3.196
				c-0.406,0.298-0.752,0.671-1.02,1.098L7.339,32.849c-1.174,1.871-0.609,4.34,1.262,5.514c0.196,0.123,0.4,0.221,0.606,0.307
				l-7.699,1.955c-1.071,0.271-1.718,1.359-1.446,2.431c0.23,0.905,1.044,1.509,1.937,1.509c0.163,0,0.329-0.021,0.494-0.062
				l28.702-7.289c3.917-0.996,6.296-4.992,5.302-8.91C36.225,27.231,35.133,26.583,34.066,26.856z"/>
		</g>
	</g>
</g>
<g>
</g>
<g>
</g>
<g>
</g>
<g>
</g>
<g>
</g>
<g>
</g>
<g>
</g>
<g>
</g>
<g>
</g>
<g>
</g>
<g>
</g>
<g>
</g>
<g>
</g>
<g>
</g>
<g>
</g>
</svg>
